<?xml version="1.0" encoding="utf-8"?>
<?xml-stylesheet type="text/xsl" href="rss1.xsl"?>
<rss version="2.0" xmlns:atom="http://www.w3.org/2005/Atom" xmlns:content="http://purl.org/rss/1.0/modules/content/" xmlns:dc="http://purl.org/dc/elements/1.1/" xmlns:media="http://search.yahoo.com/mrss/">
<channel>
 <title>Getty</title>
 <link>http://www.gettyimg.com/</link>
 <atom:link href="http://www.gettyimg.com/" rel="self" type="application/rss+xml" />

 
                <item>
                <title><![CDATA[【Cinema Center】SERIES - スター・ウォーズ クローン大戦 VOLUME TWO (DVD9 NTSC R2)]]></title>
                <link><![CDATA[https://sharemania.us/threads/%E3%82%B9%E3%82%BF%E3%83%BC%E3%83%BB%E3%82%A6%E3%82%A9%E3%83%BC%E3%82%BA-%E3%82%AF%E3%83%AD%E3%83%BC%E3%83%B3%E5%A4%A7%E6%88%A6-volume-two-dvd9-ntsc-r2.233646/]]></link>
                <description><![CDATA[<article>
<blockquote class="messageText SelectQuoteContainer ugc baseHtml">
<img src="https://st.cdjapan.co.jp/pictures/l/08/37/FXBA-30534.jpg?v=1" class="bbCodeImage LbImage" alt="[​IMG]" data-url="https://st.cdjapan.co.jp/pictures/l/08/37/FXBA-30534.jpg?v=1" style="">
<div class="messageTextEndMarker">&nbsp;</div>
</blockquote>
</article>]]></description>
                <author><![CDATA[Austin Zimmermann]]></author>
                </item>

                
                <item>
                <title><![CDATA[【Cinema Center】SERIES - スター・ウォーズ クローン大戦 VOLUME ONE (DVD9 NTSC R2)]]></title>
                <link><![CDATA[https://sharemania.us/threads/%E3%82%B9%E3%82%BF%E3%83%BC%E3%83%BB%E3%82%A6%E3%82%A9%E3%83%BC%E3%82%BA-%E3%82%AF%E3%83%AD%E3%83%BC%E3%83%B3%E5%A4%A7%E6%88%A6-volume-one-dvd9-ntsc-r2.233645/]]></link>
                <description><![CDATA[<article>
<blockquote class="messageText SelectQuoteContainer ugc baseHtml">
<img src="https://st.cdjapan.co.jp/pictures/l/09/31/FXBA-29233.jpg?v=1" class="bbCodeImage LbImage" alt="[​IMG]" data-url="https://st.cdjapan.co.jp/pictures/l/09/31/FXBA-29233.jpg?v=1" style=""> <img src="https://st.cdjapan.co.jp/pictures/l/09/31/FXBA-29233_2.jpg?v=1" class="bbCodeImage LbImage" alt="[​IMG]" data-url="https://st.cdjapan.co.jp/pictures/l/09/31/FXBA-29233_2.jpg?v=1" style=""> <br>
<br>
<b>説明</b><br>
壮大なる『スター・ウォーズ』サーガは、エミー賞受賞の初ＤＶＤ化作品『スター・ウォース クローン大戦』へと続く、ゲンディ・タルタコフスキー監督によるこの短編アニメ集は、ショージ・ルーカスの世界観を見事に、かつダイナミックにアニメーション化しており、すべての世代が楽しめる作品となっている。<br>
<br>
『スター・ウォーズ クローン大戦 VOLUME ONE』は、『エピソード２／クローンの攻撃』と最新作『エピソード３／シスの復讐』を結ぶ掛け橋となる作品である。さあ、ジェダイ騎士団と勇敢なる共和国のクローン軍が、邪悪なシスの暗黒卿、ドゥークー伯爵率いる分離主義勢力のドロイド軍との戦いに挑む過程を追ってみよう。そして、アナキン・スカイウォーカーとオビ＝ワン・ケノービが一曜銀河系の英雄となったバトルや、本作で初見参となる『エピソード３』の新たなる脅威、グリーバス将軍の衝撃の目撃者となろう！！<br>
<br>
本作は『スター・ウォーズ』シリーズのＤＶＤコレクションに絶対欠かせない作品です。
<div class="messageTextEndMarker">&nbsp;</div>
</blockquote>
</article>]]></description>
                <author><![CDATA[Austin Zimmermann]]></author>
                </item>

                
                <item>
                <title><![CDATA[【Apple Music】WEB-RiP - Elena - If You Want It (1080p)]]></title>
                <link><![CDATA[https://sharemania.us/threads/elena-if-you-want-it-1080p.233644/]]></link>
                <description><![CDATA[<article>
<blockquote class="messageText SelectQuoteContainer ugc baseHtml">
<img src="https://i.imgur.com/S68phBE.jpg" class="bbCodeImage LbImage" alt="[​IMG]" data-url="https://i.imgur.com/S68phBE.jpg" style=""><br>
<br>
<div class="bbCodeBlock bbCodeCode">
<div class="type">Code:</div>
<pre>General
Complete name                  : G:\Новая папка\Elena - If You Want It.mp4
Format                         : MPEG-4
Format profile                 : Base Media
Codec ID                       : isom (isom/iso2/avc1/mp41)
File size                      : 134 MiB
Duration                       : 2 min 43 s
Overall bit rate               : 6 862 kb/s
Frame rate                     : 23.976 FPS
Movie name                     : If You Want It
Performer                      : Elena
Genre                          : Pop
ContentType                    : Music Video
Recorded date                  : 2021-02-12 08:00:00 UTC
Writing application            : Lavf56.30.100
Copyright                      : ℗ 2021 Elitism Music Enterprise Inc

Video
ID                             : 1
Format                         : AVC
Format/Info                    : Advanced Video Codec
Format profile                 : High@L4
Format settings                : CABAC / 5 Ref Frames
Format settings, CABAC         : Yes
Format settings, Reference fra : 5 frames
Codec ID                       : avc1
Codec ID/Info                  : Advanced Video Coding
Duration                       : 2 min 43 s
Bit rate                       : 6 608 kb/s
Width                          : 1 920 pixels
Height                         : 800 pixels
Display aspect ratio           : 2.40:1
Frame rate mode                : Constant
Frame rate                     : 23.976 (24000/1001) FPS
Color space                    : YUV
Chroma subsampling             : 4:2:0
Bit depth                      : 8 bits
Scan type                      : Progressive
Bits/(Pixel*Frame)             : 0.179
Stream size                    : 129 MiB (96%)
Color range                    : Limited
Color primaries                : BT.709
Transfer characteristics       : BT.709
Matrix coefficients            : BT.709
Codec configuration box        : avcC

Audio
ID                             : 2
Format                         : AAC LC
Format/Info                    : Advanced Audio Codec Low Complexity
Codec ID                       : mp4a-40-2
Duration                       : 2 min 43 s
Bit rate mode                  : Constant
Bit rate                       : 251 kb/s
Channel(s)                     : 2 channels
Channel layout                 : L R
Sampling rate                  : 48.0 kHz
Frame rate                     : 46.875 FPS (1024 SPF)
Compression mode               : Lossy
Stream size                    : 4.91 MiB (4%)
Default                        : Yes
Alternate group                : 1

</pre>
</div>
<div class="bbCodeBlock bbCodeVfcHH HiddenContent">
<div class="attribution type">Hidden Content:</div>
<blockquote>You must either reply or click 'Like' to see the hidden information contained here.</blockquote>
</div>
<div class="messageTextEndMarker">&nbsp;</div>
</blockquote>
</article>]]></description>
                <author><![CDATA[vitalya3]]></author>
                </item>

                </channel></rss>